<svg version="1.1" id="Layer_1" xmlns:x="ns_extend;" xmlns:i="ns_ai;" xmlns:graph="ns_graphs;" xmlns="http://www.w3.org/2000/svg" xmlns:xlink="http://www.w3.org/1999/xlink" x="0px" y="0px" viewBox="0 0 77.6 45" style="enable-background:new 0 0 77.6 45;" xml:space="preserve">
 <style type="text/css">
  .st0{fill:#FFFFFF;}
 </style>
 <metadata>
  <sfw xmlns="ns_sfw;">
   <slices>
   </slices>
   <sliceSourceBounds bottomLeftOrigin="true" height="44.9" width="77.4" x="0" y="0.1">
   </sliceSourceBounds>
  </sfw>
 </metadata>
 <g>
  <path class="st0" d="M7,24.1h1.5v2.8H3.2v-2.8h1.5v-1.7H0v1.7h1.5v8.4H0v1.7h4.7v-1.7H3.2v-3.9h5.3v3.9H7v1.7h4.7v-1.7h-1.5v-8.4
		h1.5v-1.7H7 M63.8,32.4h-4.6v-3.9h4v-1.7h-4V24h4.7v1.6h1.6v-3.3h-9.6V24h1.6v8.4h-1.6v1.7h9.6v-3.9h-1.7 M23.6,30.2h-1.7v2.2h-4.6
		v-3.9h4v-1.7h-4V24H22v1.6h1.6v-3.3H14V24h1.6v8.4H14v1.7h9.6 M59.6,21.8H63l-0.9-1h-3.5 M74.8,27.4c-1.2-0.3-2-0.3-3.2-0.7
		c-1.1-0.4-1.3-1-1.3-1.5c0-0.4,0.5-1.6,2.2-1.6s2.8,1.1,2.9,2.1l0,0l0,0H77v-3.4h-1.6V23v0.2c0,0-0.1-0.1-0.2-0.3l0,0
		c-0.5-0.5-1.5-0.9-2.9-0.9c-1.7,0-3.8,1.1-3.8,3.2c0,2,1.5,2.7,2.7,3.1c1.2,0.3,1.9,0.3,2.9,0.6c1,0.3,1.7,0.9,1.7,1.8
		s-0.5,2-2.7,2s-3.1-1.2-3.3-2.9l0,0h-1.6v4.1h1.6v-0.8l0,0l-0.1-0.2c0,0,0.1,0.1,0.2,0.3l0,0c0.8,0.6,1.9,1,3.3,1
		c1.5,0,4.2-0.8,4.2-3.6C77.6,28.8,76.6,27.9,74.8,27.4L74.8,27.4z M48.9,32.4v1.7h4.8v-1.7h-1.6V24h1.6v-1.7h-4.3l-2.8,6.8
		l-0.1,0.3l-0.1-0.3l-2.8-6.8h-4.3V24h1.6v8.4h-1.6v1.7h4.8v-1.7h-1.5v-7.7v-0.5l0.1,0.4l3.3,7.8h1l3.3-7.8l0.1-0.4v0.5v7.8
		 M16.3,17.5v0.4h1.6c-0.2-0.1-0.3-0.2-0.5-0.4H16.3z M59.6,17.5h-0.8c-0.2,0-0.4,0.2-0.4,0.4h1.3L59.6,17.5L59.6,17.5z M16.3,19
		h43.3v-0.8H31.7c-0.7,0.3-1.6,0.3-2.3,0H21c-0.8,0.4-1.7,0.3-2.5,0h-2.2V19L16.3,19z M28.5,17.5H22c0,0-0.3,0.3-0.4,0.4H29
		C28.7,17.7,28.6,17.6,28.5,17.5z">
  </path>
  <path class="st0" d="M17,14.5c-0.1,0.3-0.1,0.5-0.1,0.8c0,1.5,1.3,2.8,2.9,2.7c1.5,0,2.7-1.2,2.7-2.7c0-0.3-0.1-0.6-0.2-0.9
		c0.3-0.1,0.6-0.1,0.9-0.2c0.1,0,0.1-0.1,0-0.1c-0.4-0.1-0.9-0.2-1.3-0.3c-0.5-0.7-1.4-1.2-2.3-1.2c-0.4,0-0.7,0.1-1,0.2l0,0
		c-0.1-0.2-0.1-0.5,0-0.8c0.3-0.5,0.9-0.6,1.4-0.7c0.2,0,0.6,0,0.6,0.1c0.1,0.1,0.3,0.1,0.5,0c0.2,0.1,0.2,0.1,0.4,0.2
		c1.8,0.6,3.8,0.9,5.7,0.6c0.3,0.3,0.5,0.8,0.7,1.2c0.1,0.1,0.1-0.1,1.1-0.1c0.3,0,0.8,0,1.1,0c-0.8,0.1-1.4,0.5-1.8,1.1
		c-0.6,0.2-1.1,0.4-1.3,0.5c0,0,0,0.1,0.2,0.1c0.3,0.1,0.6,0.1,0.9,0.2c0,0.1,0,0.3,0,0.4c0,1.4,1.1,2.5,2.5,2.5s2.5-1.1,2.5-2.5
		c0-0.4-0.1-0.8-0.3-1.2c0.3-0.1,0.6-0.2,1-0.4c0.3,0.1,0.5,0.3,0.6,0.5c0.2,0.2,0.5,0.1,0.7,0.1c0.3-0.1,0.4-0.4,0.4-0.7
		c0-0.1,0-0.3,0.1-0.4c0.4-0.9,2-1,2.8-1.2c0,0-0.4,0.5-0.7,0.6c-0.1,1.3-0.6,2.5-0.6,3.8c0.4,0,0.4,0.5,0.5,0.7
		c-0.1,0.2-0.3,0-0.5,0.1c-0.6-0.3,0.1-0.9-0.3-1.3c0.2-1.1,0.7-2.1,0.6-3.2c-0.2,0-0.2,0.2-0.3,0.3c-0.1,1.1-0.4,2.1-0.7,3
		c0.1,0.1,0.3,0.1,0.3,0.3c-0.4,0.2,0,0.6-0.1,0.9h-3.8l-0.4,0.4h5.9l0.1-0.2c-0.9-0.9-0.5-2.3-0.1-3.3l1-1.4
		c0.8-0.3,1.4-1.4,2.2-1.7c0,0.4-0.5,0.6-0.8,0.9c-0.3,0.7-1.3,0.8-1.4,1.6c0.4,0.4,0.9,0.7,1.4,1.1c0.5,0.3,0.3,0.9,0.7,1.2
		c0.1,0.1,0,0.2-0.1,0.3c-0.4,0.1-0.4,0.4-0.1,0.6c0.2,0.1,0.3,0.3,0.3,0.4h-2.7c0,0.1,0.1,0.2,0.2,0.4h15c0.1-0.2-0.1-0.5-0.2-0.7
		c-1.1-0.4-1.1-1.4-1.1-2.5c0,0-0.1-0.1,0-0.4c-0.2-0.1-0.9-1.9-0.5-3.3l0.2-0.5c0.2-0.3,0-0.5,0.1-0.8L55.7,9c0.1,0,0-0.2,0-0.2
		l-1,0.2c-0.8-0.3-1.9-1-2.6-2c0.2-1.6,0.1-2.8,0-3.7c0.5-0.4,0.8-0.7,0.8-0.7c0.3,0.2,0.4,0.1,0.4,0c-0.1-0.1-0.5-0.3-0.4-0.5
		c0.3,0.1,0.4,0,0.4-0.2L52.7,2l0,0V1.9c0.1-0.1,0.3,0,0.5,0c0.2-0.1,0-0.3,0-0.4C52.8,1,52,1,51.5,0.7c-0.1-0.3-0.2-0.4-0.4-0.5
		C51,0,50.3,0,50.1,0c-0.1,0-0.4,0.3-0.4,0.3C49.3,0.4,49,0.2,48.6,0c0,0,0.1,0.4,0.5,0.6c-0.3,0.1-0.5,0.4-0.6,0.8
		C48.1,1.5,48,2,48.1,2.2c-0.4,0.2-0.4,0.5-0.2,0.9c-0.3,0.2-0.3,0.6-0.2,0.8c-0.3,0.2,0,0.7,0,1c0.8-0.2,1.9,1.7,3.4,1.9
		c0.3-1.3-0.1-2-0.4-2.6C51,4,51.2,3.8,51.5,3.6c0.2,0.8,0.3,2.1,0.1,3.4l0,0c-0.1,0-0.2-0.1-0.3-0.1c0,0,0.2,0.3,0.2,0.4
		c0,0-0.5,0.3-1.5-0.1c-0.3,0.6-3.6,2.1-3.6,2.1c0.1,0.9,0.6,1.5,1,2c0.7,0.5,1.5,0.8,2.4,1c0.2,0.5,0.8,2.1,0.9,2.4
		c0.1,0.3,0.2,0.3,0.2,0.3c0.1,0.1,0.4,0.6,0.4,0.9l0.1,0.9c0,0.2,0.3,0,0.3,0.2l-0.1,0.6h-10c0.1-0.7-0.2-1.3,0-1.9
		c-0.4-0.7-1.5-1.2-1.3-2.1c0.5-0.7,2.2-1.4,1.8-2.3c1.5-0.8,2.3,0.5,3.7,0.4c0.5,0,1-0.1,1.5-0.2c-0.6-0.5-1.1-1.2-1.4-1.8
		c-3,1.2-5.8,2.2-9.1,2.8l-0.2-0.1c-0.2,0-3.8,0.8-4.7,1.2c-0.2-0.1-0.5-0.3-0.8-0.3h0.1c0.3,0,0.8-0.2,1.1-0.3
		c1.4-0.5,1.9-2.5,2.5-3.7c0.5,1.9,1.8,2.1,2.5,1.9l0.1,0.6c0,0,0.6,0,1.1-0.2c0-0.1-0.1-0.4-0.2-0.8c0.3-0.1,0.4-0.3,0.6-0.3
		c0,0.5,0.1,0.9-0.1,1.1l1.6-0.4c0.3-1.4,1.2-3.4,2.7-4.8c-2-0.8-3.5,0.1-3.9,0.5c-1.9,0.6-2,3.2-1.9,4.2c-0.3,0.1-1.7,0.5-2.4-1.9
		c0.3-1.2,1-2.2,1.9-3c0.1-0.1,0-0.2-0.2-0.1c-1.6,1.1-2.2,3.1-3.1,4.8c-0.7,1-1.6,1.6-3,1.5c-1.7,0-2.6-1.8-3.4-3
		c-1.2-2.7-4.4-1.7-6.8-2.3c-0.1-0.1-0.4-0.8-0.8-0.8c-0.3,0,0,0.3-0.2,0.4c-0.3-0.1-0.5-0.3-0.9-0.3c-0.2,0-0.3,0.3-0.3,0.5
		c0.2,0.9,1.1,1.2,1.8,1.5c0.3,0.4,0.2,1.7-0.1,2.2c-0.3,0.5-1.4,0.3-1.6,1.5c0,0.2,0,0.5,0.1,0.6c-0.4,0.2-0.8,0.6-1.1,1
		c-0.5,0.1-0.9,0.2-1.4,0.4c-0.1,0-0.1,0.1,0,0.1C16.3,14.4,16.7,14.4,17,14.5L17,14.5z M52,7.8c0.4,0.4,1.4,1.1,2,1.3l-1.8,0.3
		C52.4,8.7,51.7,8.4,52,7.8L52,7.8z M52.2,1.7c0.1,0,0.3,0,0.3,0.1c0,0,0,0.1,0,0.2c-0.1,0-0.3,0-0.3-0.1
		C52.1,1.8,52.1,1.7,52.2,1.7L52.2,1.7z M52.2,2.1c0,0.1,0.1,0.3,0.2,0.4c0,0.1-0.3,0.4-0.7,0.7c-0.1-0.5-0.2-0.8-0.2-0.9
		C51.5,2.2,52,2.1,52.2,2.1z M50.5,0.5c0.1,0,0.2,0,0.2,0s0,0.1,0,0.2l-0.2,0.1c0,0-0.2-0.1-0.2-0.2l0,0C50.4,0.6,50.4,0.5,50.5,0.5
		z M50.7,4c-0.2-0.4-0.4-0.9-0.3-1.5c0.2,0,0.5,0.1,0.9,0c0,0,0.1,0.4,0.2,1C51.2,3.6,50.9,3.8,50.7,4z M48,11.4
		c-0.6-0.3-0.2-0.1-0.1-0.2c1,0.5,1.5,0.4,2.3,0.3c0.1,0.1,0.3,0.3,0.3,0.5C49.5,12.2,48.8,11.9,48,11.4L48,11.4z M51.6,16.4
		c-0.1-0.5-0.1-0.8-0.3-1.1c-0.2-0.5-0.7-1.9-1.1-3.1c0.2-0.2,0.4-0.1,0.5,0.5c0.1,0.5,0.3,0.9,0.4,1.3c0.2,0.4,0.3,1,0.4,1.3
		c0,0,0.1,0,0.2,0.2c0.3,0.9,0.4,1.1,0.4,1.5c0.1,0.3,0.6,0.1,0.5,0.5h-1H52C51.9,17.1,52.1,16.7,51.6,16.4z M31.8,17.2
		c-0.3,0.2-0.6,0.3-1,0.4l-0.1-0.1l-0.1-1.3l0,0c0,0,0.1,0,0.2-0.1c0,0,0,0,0.1,0l0.8,1C31.8,17.1,31.8,17.2,31.8,17.2L31.8,17.2z
		 M30.5,17.6c-0.3,0-0.7-0.1-0.9-0.3c0,0,0-0.1,0-0.2l0.7-1.1l0,0h0.1l0,0l0.1,1.3C30.6,17.5,30.6,17.6,30.5,17.6L30.5,17.6z
		 M28.8,15l-0.1-0.1c0.1-0.2,0.1-0.3,0.3-0.5c0.2,0,0.3-0.1,0.5-0.1L30,15l0,0c-0.4,0-0.7,0.1-1,0.1L28.8,15L28.8,15z M30.3,13.5
		l0.1,0.1v0.1c-0.3,0.1-0.7,0.1-1,0.2v-0.1C29.7,13.7,30,13.6,30.3,13.5L30.3,13.5z M30.2,14.9l-0.6-0.7c0.3-0.1,0.6-0.1,0.8-0.2
		v0.8C30.4,14.9,30.3,14.9,30.2,14.9z M30.1,15.1C30.1,15.1,30.1,15.2,30.1,15.1c0,0.1-0.1,0.1-0.1,0.1s0,0-0.1,0l-0.4-0.1
		C29.8,15.2,29.9,15.2,30.1,15.1L30.1,15.1z M30.9,15C30.9,15,30.8,15,30.9,15L30.9,15L30.9,15L30.9,15L30.9,15z M30.6,14.8V14
		c0.3-0.1,0.7-0.1,1-0.2v0.1l-0.5,0.8C30.9,14.7,30.8,14.8,30.6,14.8L30.6,14.8z M31.7,14l0.1-0.1c0.1,0.1,0.3,0.2,0.4,0.4
		c-0.3,0.1-0.6,0.2-0.9,0.3C31.3,14.6,31.7,14,31.7,14z M30.6,13.7L30.6,13.7c0-0.1,0-0.2,0.1-0.2c0.2,0,0.4,0,0.6,0.1
		C31,13.7,30.8,13.7,30.6,13.7L30.6,13.7z M30.6,13.5L30.6,13.5L30.6,13.5L30.6,13.5L30.6,13.5z M27.6,14.9
		C27.5,14.9,27.5,14.8,27.6,14.9c0.2-0.2,0.5-0.3,0.7-0.4c-0.1,0.1-0.1,0.3-0.2,0.5C28,15,27.8,15,27.6,14.9L27.6,14.9z M28.6,15.2
		c0.2,0,0.3,0,0.5,0l0.9,0.2l0,0c0,0,0,0.1,0,0.2l0,0l-1.2,0.5c0,0-0.1,0-0.2,0c-0.1-0.2-0.1-0.4-0.1-0.6
		C28.5,15.5,28.5,15.3,28.6,15.2L28.6,15.2z M28.7,16.4L28.7,16.4L28.7,16.4z M28.7,16.5l0.1-0.1l1.2-0.5l0,0l0.1,0.1c0,0,0,0,0,0.1
		l-0.7,1.1l-0.1,0.1C29.1,17,28.9,16.8,28.7,16.5L28.7,16.5z M29.4,17.3L29.4,17.3L29.4,17.3L29.4,17.3z M30.6,17.6L30.6,17.6
		L30.6,17.6z M32,17c0,0-0.1,0-0.1-0.1l-0.8-1l0,0c0,0,0-0.1,0.1-0.1c0,0,0,0,0.1,0l1.2,0.3l0.1,0.1C32.4,16.5,32.3,16.8,32,17z
		 M32.6,16c0,0-0.1,0-0.2,0l-1.2-0.3l0,0v-0.1c0,0,0,0,0-0.1l1.2-0.5c0,0,0.1,0,0.2,0c0.1,0.2,0.1,0.4,0.1,0.6
		C32.6,15.7,32.6,15.8,32.6,16L32.6,16z M32.4,14.7l-0.1,0.1L32.4,14.7l-1.3,0.6l0,0L31,15.2c0,0,0,0,0-0.1l0.1-0.2
		c0.4-0.1,0.8-0.2,1.2-0.4C32.4,14.6,32.4,14.6,32.4,14.7L32.4,14.7z M35.7,12.9c-0.5,0.4-0.3,0.9-0.6,1c-0.1,0-0.8,0.1-0.9,0.2
		c-0.2-0.2-0.5-0.4-0.8-0.5C34,13.2,35.1,13,35.7,12.9z M33.5,13.9c-0.1,0.1-0.4,0.2-0.9,0.3c-0.1-0.2-0.2-0.3-0.4-0.4
		C32.8,13.7,33.2,13.8,33.5,13.9z M39.4,6.9C38.6,7.8,38.7,9,38.8,10c-0.2,0.1-0.4,0.3-0.6,0.3C38.1,9.1,38.3,7.3,39.4,6.9L39.4,6.9
		z M18.7,7.3c-0.1-0.2-0.3-0.5-0.2-0.7c0.1-0.1,0.4,0,0.5,0c0.1,0.1,1,0.6,1.3,0.6C22.2,7.7,24.6,7,26,8.3c0.1,0.1,0.1,0.1,0.1,0.2
		C23.9,7.2,20.6,9.4,18.7,7.3L18.7,7.3z M20.4,9.8c0.2,0.1,0.2,0.3,0.4,0.5c0.3,0.5,0.8,0.6,1.1,1c-0.1,0-0.2,0-0.3,0
		c-0.2,0-0.3-0.1-0.4-0.2c-0.1-0.1-0.3-0.2-0.4-0.1c-0.1,0-0.5,0-0.7-0.1C20.1,10.6,20.5,10.2,20.4,9.8L20.4,9.8z M18.2,13.8
		l0.6,0.6c-0.4,0-0.8,0-1.2,0v-0.1c0.1-0.2,0.2-0.3,0.3-0.4C18,13.8,18.1,13.8,18.2,13.8L18.2,13.8z M21.6,13.9
		c0.1,0.1,0.1,0.2,0.2,0.3c-0.3,0-0.6,0.1-0.9,0.1l0.4-0.4C21.5,13.9,21.6,13.9,21.6,13.9L21.6,13.9z M21.2,13.8l-0.6,0.5
		c-0.2,0-0.3,0-0.5,0l0.3-0.7C20.7,13.6,21,13.6,21.2,13.8C21.3,13.8,21.3,13.8,21.2,13.8L21.2,13.8z M21.1,17.1
		c-0.2,0.2-0.5,0.3-0.8,0.4c0,0-0.1-0.1-0.2-0.2L19.9,16l0,0c0,0,0.1,0,0.1-0.1l0,0l0.9,1C21.1,17,21.1,17.1,21.1,17.1L21.1,17.1z
		 M19.1,14.8L19.1,14.8c0,0.1,0,0.1-0.1,0.1l0,0l-1-0.4c0.3,0,0.6,0,0.9,0C19,14.6,19.1,14.8,19.1,14.8z M20.1,14.7L20,14.6l0,0
		v-0.1h0.4L20.1,14.7C20.2,14.7,20.2,14.7,20.1,14.7L20.1,14.7z M19.9,14.4c-0.1,0-0.2,0-0.3,0l0,0l-0.1-0.8h0.1c0.2,0,0.4,0,0.5,0
		L19.9,14.4L19.9,14.4z M19.3,13.7l0.1,0.7c-0.1,0-0.3,0-0.4,0l-0.6-0.7C18.7,13.7,19,13.7,19.3,13.7z M19.5,14.6L19.5,14.6
		c-0.1,0-0.1,0.1-0.1,0.1l0,0l-0.1-0.1C19.3,14.6,19.4,14.6,19.5,14.6L19.5,14.6z M17.5,14.3L17.5,14.3L17.5,14.3L17.5,14.3z
		 M17.4,14.7c0,0,0.1-0.1,0.3-0.1l1.3,0.5l0,0v0.1l0,0l-1.3,0.2c-0.1,0-0.2,0-0.2-0.1s0-0.1,0-0.2C17.3,15.1,17.4,14.9,17.4,14.7
		L17.4,14.7z M17.4,15.9c0-0.1,0.1-0.2,0.2-0.2l1.3-0.2l0,0v0.1l0,0L18,16.5c-0.1,0.1-0.2,0.1-0.3,0C17.6,16.3,17.5,16.1,17.4,15.9z
		 M17.8,16.6C17.8,16.6,17.7,16.6,17.8,16.6C17.7,16.6,17.8,16.6,17.8,16.6L17.8,16.6z M18,16.9c0,0,0-0.2,0.1-0.3l1.1-0.8l0,0
		l0.1,0.1l0,0l-0.5,1.3c0,0.1-0.2,0.2-0.2,0.2C18.4,17.2,18.2,17.1,18,16.9L18,16.9z M18.8,17.4L18.8,17.4L18.8,17.4L18.8,17.4z
		 M19.1,17.5c0,0-0.1-0.1-0.1-0.3l0.5-1.3l0,0h0.1l0,0l0.3,1.3c0,0.1,0,0.2-0.1,0.2s-0.1,0-0.2,0C19.5,17.6,19.3,17.6,19.1,17.5
		L19.1,17.5z M21.3,16.9C21.3,16.9,21.4,16.9,21.3,16.9C21.4,16.9,21.3,16.9,21.3,16.9z M21.4,16.8c0,0-0.2,0-0.3-0.1l-0.9-1l0,0
		c0,0,0-0.1,0.1-0.1l0,0l1.3,0.5c0.1,0.1,0.2,0.2,0.2,0.2C21.7,16.5,21.6,16.7,21.4,16.8L21.4,16.8z M21.8,16.2c0,0,0-0.1,0.1-0.1
		L21.8,16.2L21.8,16.2z M22,15.8c0,0-0.1,0.1-0.3,0.1l-1.3-0.5l0,0v-0.1l0,0l1.4-0.2c0.1,0,0.2,0,0.2,0.1v0.1
		C22,15.4,22,15.6,22,15.8L22,15.8z M22,14.7c0,0.1-0.1,0.2-0.2,0.2l-1.4,0.2l0,0c0,0,0-0.1-0.1-0.1l0,0l0.4-0.3
		c0.4,0,0.8-0.1,1.2-0.1C21.9,14.5,21.9,14.6,22,14.7L22,14.7z M22.7,14c0.1,0,0.1,0.1,0,0.1s-0.3,0.1-0.4,0.1
		c-0.1-0.1-0.1-0.2-0.2-0.3C22.3,13.9,22.5,13.9,22.7,14L22.7,14z M20.4,13.5l0.1-0.2c0-0.1,0.2-0.2,0.2-0.2
		c0.2,0.1,0.4,0.2,0.6,0.4C21,13.5,20.7,13.5,20.4,13.5L20.4,13.5z M20.3,13c0,0,0.1,0.2,0.1,0.3l-0.1,0.2c-0.2,0-0.4,0-0.6,0
		c-0.1,0-0.1,0-0.2,0l-0.1-0.3c0-0.1,0-0.2,0.1-0.2s0.1,0,0.2,0C19.9,12.9,20.1,12.9,20.3,13L20.3,13z M19,13c0.1,0,0.1,0.1,0.2,0.2
		v0.2C19.1,13.3,19,13.2,19,13L19,13L19,13z M19,13.5c-0.2,0-0.4,0-0.7,0.1c0-0.1,0-0.2,0-0.2c0.1-0.1,0.2-0.1,0.3-0.2
		C18.7,13.3,18.8,13.4,19,13.5z M16.6,14.1c0.2-0.1,0.4-0.1,0.6-0.2c-0.1,0.1-0.1,0.2-0.2,0.4c-0.2,0-0.3,0-0.5-0.1
		C16.5,14.2,16.5,14.2,16.6,14.1L16.6,14.1z M57.9,7.5C57.9,7.5,57.8,7.6,57.9,7.5C58,7.6,58,7.6,58.1,7.7c0,0,0,0,0-0.1
		C58.1,7.5,58,7.4,57.9,7.5L57.9,7.5z">
  </path>
  <path class="st0" d="M56.2,17.5H54c0,0.1,0.1,0.3,0.2,0.4h2.4l0.7-0.3c0.1-0.3-0.1-0.6-0.1-0.8c0-0.7-0.4-1.4-0.6-2.1
		c0.1-0.1,0.3-0.5,0.5-0.4c0.5,0.8,0.6,1.8,0.5,2.9c-0.1,0.3-0.5,0.5-0.5,0.7c0,0.1,0.6,0,0.8-0.2c0-0.2,0.3-0.4,0.4-0.4
		c0.1-0.3-0.1-0.3,0-0.5c0.1-0.1,0-1.5-0.1-1.7c0,0,0,0-0.1,0c-0.1-0.3,0.2-0.7,0.3-1l0.8-0.1c-0.1-0.7-0.3-1.4-0.5-2.1
		c0.1-0.2,0.3-0.3,0.4-0.4c0.8-0.5,0.1-1.4,0.1-2.1c-0.1-0.3-0.6-0.6-0.7-1c0.1,0.1,0.2,0,0.2,0.1c0.2-0.2,0.2-0.4,0.1-0.7
		c0.4-0.4,0.6-0.6,0.6-0.7c0-0.4-0.6-0.9-0.9-0.9c-0.2,0.1-0.3,0.3-0.7,0.6c0,0-0.4-0.1-0.6,0c-0.1,0.1-0.1,0.4,0.1,0.6
		c0,0.1-0.1,0.1-0.1,0.2s0,0.1,0,0.1c0.1,0.1,0.1,0.2,0,0.3c-0.1,0.2,0.1,0.3,0.2,0.3c0,0,0,0,0.1,0.1c0,0.2-0.6,0.5-0.6,0.7
		c-0.1,0.4-0.3,0.4-0.6,1.9c0,0.4,0,0.7,0,0.9c-0.3,0.9-0.6,1.4-0.8,2c-0.2,0.5,0.9,2,0.9,3C56.4,17.4,56.2,17.4,56.2,17.5
		L56.2,17.5z M57.9,15.9c-0.1-0.1-0.1-0.3-0.1-0.5c0.1-0.1,0.3,0,0.3,0C58.3,15.9,58.3,16,57.9,15.9L57.9,15.9z M57.9,8.8L58,8.7
		c0.3-0.2,0.1-0.1-0.2-0.2c-0.1-0.1-0.1-0.2-0.1-0.3c0-0.2-0.1-0.2-0.1-0.3c0,0,0-0.1,0.1-0.2s0.1-0.4,0.2-0.4
		c0.6,0,0.4,0.3,0.5,0.3c0,0.1,0.3,0.4,0.4,0.5c0,0.3-0.3,0.1-0.2,0.5c0,0.6-0.7,0.5-1,1C57.4,9,57.9,9,57.9,8.8L57.9,8.8z
		 M57.3,11.3c0.2,0.1,0.3,0.3,0.4,0.3c0.1,0.2-0.2,0.2-0.3,0.3c-0.2,0-0.3-0.2-0.4-0.1h-0.2C56.9,11.7,57.1,11.4,57.3,11.3
		L57.3,11.3z M55.9,14.3c-0.1-0.4,0.5-1,0.8-2.3c0.1-0.1,0.2,0.3,0.4,0.2c0.3,0,0.2,0.9,0.5,0.3c0-0.2,0-0.5,0.2-0.6
		c0.2,0,0.3,0.1,0.4,0.2l-0.3,0.5c0.6,0-0.2,1,0.6,0.8c0,0.4-0.2,1.4-0.4,1.3c-0.1-0.6-0.2-0.3-0.2-0.2c0,0.2,0,0.4,0.1,0.6
		c0,0-0.2,0-0.2,0.1c-0.4-0.6-0.4-1.5-0.7-2.2L57,13.1c0,0.4-0.2,1-0.5,1.2c-0.2,0.1,0.5,0-0.1,0.3c0.2,0.1,0,0.3-0.2,0.3
		C56.1,14.7,56,14.5,55.9,14.3L55.9,14.3z M56.5,15.7c-0.1-0.1-0.2-0.4-0.3-0.5l0.3-0.1c0.1,0.1,0.2,0.3,0.2,0.5
		C56.7,15.6,56.6,15.7,56.5,15.7z M46,9c0-0.7,0.2-1.2-0.1-1.9c0-0.3,0.2-0.5,0.2-0.8l-0.5,0.1c-0.1,0.6-0.2,0.7-0.1,1.3
		C45.6,8.3,45.7,8.8,46,9L46,9z M40.8,10.9c1.9-0.5,3.3-1,4.8-1.7c-0.7-1.4-0.5-1.8-0.5-2.7c0,0-0.8,0-1.8-0.2
		C42.3,6.9,41,9.5,40.8,10.9L40.8,10.9z M47.4,11.3C47.3,11.2,47.5,11.3,47.4,11.3z M49.7,7c-0.8-0.6-1.4-1.9-2.3-1.8
		c-0.1-1-0.5-2.6,0.8-4.3c0.2-0.1,0.5-0.1,0.6-0.2c-0.5-0.1-1.3,0.3-1.8,0c0,0,0.2,0.4,0.5,0.5C47.4,1.4,47,1.6,47.2,2
		c-0.4,0.3-0.3,0.7-0.1,0.9c-0.2,0.2-0.4,0.6-0.1,0.9c-0.4,0.4,0.1,0.7,0.2,0.8c-0.2,0.4,0,0.7,0,0.7c0,0.3-0.5,0.7-0.7,0.8
		c-0.2,0.7-0.1,2-0.1,2.8C47.6,8.3,48.8,7.8,49.7,7L49.7,7z M35.9,30c0-0.7-0.5-1.5-1.1-1.9c-0.2-0.1-0.3-0.1-0.5-0.2
		c0.2,0,0.4,0,0.6-0.1l0,0c0.6-0.3,1.4-1.1,1.4-2.5c0-1-0.4-1.9-1.2-2.4c-0.7-0.5-1.5-0.6-2.4-0.6h-6.5V24h1.5v8.4h-1.5v1.7h4.7
		v-1.7h-1.5v-3.7h3.2c1.1,0,1.5,0.7,1.6,1.4l0.1,4h3.2v-1.7H36L35.9,30L35.9,30z M32.9,27.1h-3.6V24h3.4c0.3,0,0.8,0,1.1,0.2
		c0.4,0.2,0.8,0.7,0.8,1.4C34.7,26.5,33.9,27.1,32.9,27.1L32.9,27.1z M25.6,38.2h-2.2v6.7h1V42h1.1c1.6,0,2.3-0.8,2.3-1.9
		C27.8,39.1,27.1,38.2,25.6,38.2L25.6,38.2z M25.6,41.2h-1.2v-2.1h1.2c0.9,0,1.2,0.5,1.2,1C26.8,40.8,26.3,41.2,25.6,41.2L25.6,41.2
		z M31.6,38.2l-3,6.7h1.1l0.8-2h2.9l0.8,2h1.1l-3.1-6.7H31.6L31.6,38.2z M30.9,42.1l1-2.6l1.1,2.6H30.9L30.9,42.1z M45.6,38.2h1v6.7
		h-1V38.2z M50.7,39.8c0-0.5,0.5-0.8,1.2-0.8c0.5,0,1.1,0.2,1.7,0.7v-1.1c-0.5-0.3-1.1-0.5-1.6-0.5c-1.3,0-2.2,0.7-2.2,1.8
		c0,1.8,3.2,2,3.2,3.4c0,0.4-0.4,0.8-1.2,0.8c-0.7,0-1.4-0.3-1.9-1v1.2c0.6,0.4,1.2,0.6,2,0.6c1.2,0,2-0.8,2-1.8
		C53.8,41.1,50.7,41.1,50.7,39.8L50.7,39.8z M42.1,43.6c-0.5-0.8-0.9-1.5-1.6-1.9c0.8-0.3,1.2-0.9,1.2-1.6c0-1.2-0.9-1.9-2.3-1.9
		h-1.8v6.7h1V42H39c0.5,0,0.9,0.2,1.9,1.5l0.9,1.4H43l-0.5-0.8C42.3,44,42.2,43.8,42.1,43.6z M39.2,41.1h-0.6V39h0.6
		c1,0,1.4,0.4,1.4,1C40.6,40.6,40.3,41.1,39.2,41.1L39.2,41.1z">
  </path>
 </g>
</svg>