<svg version="1.1" id="Layer_1" xmlns="http://www.w3.org/2000/svg" xmlns:xlink="http://www.w3.org/1999/xlink" x="0px" y="0px" viewBox="-458.9 441 200 200" style="enable-background:new -458.9 441 200 200;" xml:space="preserve">
 <style type="text/css">
  .st0{fill:#126BC5;}
 </style>
 <g>
  <g>
   <path class="st0" d="M-387.5,441c-4.2,0-6.7,3.4-6.7,6.7v49.6h131.1l-59.7-56.3C-322.8,441-387.5,441-387.5,441z">
   </path>
   <path class="st0" d="M-258.9,512.4c0-4.2-3.4-6.7-6.7-6.7h-49.6v131.1l56.3-59.7C-258.9,577.1-258.9,512.4-258.9,512.4z">
   </path>
   <path class="st0" d="M-330.3,641c4.2,0,6.7-3.4,6.7-6.7v-49.6h-131.1L-395,641C-395,641-330.3,641-330.3,641z">
   </path>
   <path class="st0" d="M-458.9,569.6c0,4.2,3.4,6.7,6.7,6.7h49.6V446l-56.3,59.7L-458.9,569.6z">
   </path>
  </g>
 </g>
</svg>